<svg xmlns="http://www.w3.org/2000/svg" data-name="Layer 1" viewBox="0 0 100 125" x="0px" y="0px"><title>ALL</title><path d="M77.56,51.35H22.43C14.73,50.65,9,44.7,9,37.5c0-7.67,6.63-13.91,14.78-13.91a15.39,15.39,0,0,1,5.26.92C32,16.5,40.22,11,49.33,11c9.37,0,17.6,5.7,20.45,14a15.49,15.49,0,0,1,6.45-1.4C84.37,23.59,91,29.83,91,37.5c0,7.2-5.74,13.15-13.35,13.85ZM23.78,25.59c-7,0-12.78,5.34-12.78,11.91,0,6.16,5,11.25,11.52,11.85h55C84.07,48.74,89,43.65,89,37.5c0-6.57-5.73-11.91-12.78-11.91a13.44,13.44,0,0,0-6.56,1.7,1,1,0,0,1-1.45-.61C66,18.62,58.23,13,49.33,13,40.71,13,33,18.39,30.61,26.13a1,1,0,0,1-1.36.62A13.44,13.44,0,0,0,23.78,25.59Z"/><path d="M47,89a1,1,0,0,1-.52-.15,1,1,0,0,1-.33-1.38l9.61-15.55L42.4,73.57a1,1,0,0,1-.94-.42,1,1,0,0,1-.06-1L50,55.73a1,1,0,1,1,1.77.93L44.06,71.35,57.6,69.69a1,1,0,0,1,1,.45,1,1,0,0,1,0,1.06L47.86,88.53A1,1,0,0,1,47,89Z"/></svg>
